<?xml version="1.0" encoding="UTF-8" standalone="no"?>
<!-- Created with Inkscape (http://www.inkscape.org/) -->

<svg
   width="385mm"
   height="70mm"
   viewBox="0 0 385 70.000001"
   version="1.1"
   id="svg5"
   xml:space="preserve"
   sodipodi:docname="sapphire_text_blue.svg"
   inkscape:version="1.2.1 (9c6d41e, 2022-07-14)"
   xmlns:inkscape="http://www.inkscape.org/namespaces/inkscape"
   xmlns:sodipodi="http://sodipodi.sourceforge.net/DTD/sodipodi-0.dtd"
   xmlns="http://www.w3.org/2000/svg"
   xmlns:svg="http://www.w3.org/2000/svg"><sodipodi:namedview
     id="namedview140"
     pagecolor="#ffffff"
     bordercolor="#000000"
     borderopacity="0.25"
     inkscape:showpageshadow="2"
     inkscape:pageopacity="0.0"
     inkscape:pagecheckerboard="0"
     inkscape:deskcolor="#d1d1d1"
     inkscape:document-units="mm"
     showgrid="false"
     inkscape:zoom="0.59625402"
     inkscape:cx="728.71626"
     inkscape:cy="132.49387"
     inkscape:window-width="1512"
     inkscape:window-height="916"
     inkscape:window-x="0"
     inkscape:window-y="38"
     inkscape:window-maximized="0"
     inkscape:current-layer="svg5" /><defs
     id="defs2" /><g
     id="layer1"
     transform="translate(-1.732419,-2.875399)"><g
       id="layer1-0"
       transform="translate(-57.163027,-53.581058)"><path
         style="fill:#353ab8;fill-opacity:1;stroke-width:0.0846667"
         d="M 84.493753,106.86593 69.59248,91.964473 84.514919,77.042033 99.437359,62.119593 v 7.49279 7.49279 l -7.429319,7.42968 -7.42932,7.42968 7.429784,7.43014 7.429783,7.430147 -0.02163,7.47128 -0.02163,7.47129 z"
         id="path248" /><path
         style="fill:#9194df;fill-opacity:1;stroke-width:0.0846667"
         d="m 101.72337,114.31668 v -7.49279 l 7.42932,-7.429677 7.42932,-7.42968 -7.42932,-7.42968 -7.42932,-7.42968 v -7.49279 -7.49279 l 14.92248,14.92247 14.92247,14.92247 -14.92247,14.922467 -14.92248,14.92247 z"
         id="path315" /></g><g
       aria-label="SAPPHIRE"
       id="text353"
       style="font-weight:bold;font-size:44.0972px;font-family:Arial;-inkscape-font-specification:'Arial Bold';letter-spacing:7.9375px;fill:#93d3cc;stroke-width:0"><path
         d="m 110.62042,30.750373 q -1.85209,-1.014236 -3.79236,-1.675694 -1.89618,-0.661458 -3.57188,-0.661458 -2.07256,0 -3.263189,0.837847 -1.190625,0.837847 -1.190625,2.51354 0,1.146527 0.881944,2.072568 0.92604,0.881944 2.33715,1.5875 1.45521,0.705555 2.99861,1.278818 1.41111,0.529167 2.77812,1.278819 1.41112,0.705555 2.51355,1.807985 1.10243,1.058333 1.76388,2.689929 0.66146,1.5875 0.66146,3.924651 0,2.469443 -1.27882,4.586109 -1.27882,2.116665 -3.74826,3.439581 -2.46944,1.278819 -6.08541,1.278819 -1.852085,0 -3.792362,-0.352778 -1.89618,-0.396874 -3.748262,-1.146527 -1.852082,-0.793749 -3.571873,-1.984374 l 2.822221,-4.982983 q 1.146527,0.837847 2.469443,1.499305 1.367013,0.61736 2.734026,0.970138 1.367013,0.352778 2.513537,0.352778 1.14653,0 2.29306,-0.308681 1.19062,-0.352777 1.94027,-1.146527 0.79375,-0.79375 0.79375,-2.20486 0,-0.970138 -0.66145,-1.763888 -0.61736,-0.793749 -1.71979,-1.455207 -1.05834,-0.661458 -2.33716,-1.146528 -1.499301,-0.573263 -3.0868,-1.322916 -1.587499,-0.749652 -2.99861,-1.807985 -1.367013,-1.10243 -2.248957,-2.689929 -0.837846,-1.631596 -0.837846,-3.968748 0,-2.82222 1.234721,-4.894789 1.278819,-2.072568 3.571873,-3.263192 2.293055,-1.234722 5.291669,-1.367014 3.92465,0 6.34999,0.926042 2.46944,0.926041 4.40972,2.20486 z"
         style="-inkscape-font-specification:'Josefin Sans Bold';fill:#353ab8"
         id="path519" /><path
         d="m 123.27624,55.356609 14.64027,-33.734356 h 0.35278 l 14.64027,33.734356 h -7.40833 l -9.34861,-23.724292 4.63021,-3.174999 -11.20069,26.899291 z M 133.2863,43.626755 h 9.74549 l 2.24895,5.379858 h -13.97881 z"
         style="-inkscape-font-specification:'Josefin Sans Bold';fill:#353ab8"
         id="path521" /><path
         d="m 175.3991,22.901071 q 4.01284,0 6.79097,1.367013 2.77812,1.322916 4.23333,3.792359 1.45521,2.425346 1.45521,5.776733 0,1.984374 -0.61736,4.012846 -0.57327,1.984373 -1.89618,3.61597 -1.27882,1.631596 -3.48368,2.645832 -2.16077,0.970138 -5.33576,0.970138 h -4.58611 v 10.274647 h -6.3941 V 22.901071 Z m 1.10243,15.963186 q 1.45521,0 2.42535,-0.485069 0.97013,-0.529166 1.4993,-1.278819 0.57326,-0.793749 0.79375,-1.631596 0.26458,-0.837847 0.26458,-1.455208 0,-0.485069 -0.17639,-1.278818 -0.13229,-0.837847 -0.61736,-1.675694 -0.48507,-0.837847 -1.4993,-1.41111 -0.97014,-0.573264 -2.64583,-0.573264 h -4.58611 v 9.789578 z"
         style="-inkscape-font-specification:'Josefin Sans Bold';fill:#353ab8"
         id="path523" /><path
         d="m 211.3824,22.901071 q 4.01284,0 6.79097,1.367013 2.77812,1.322916 4.23333,3.792359 1.45521,2.425346 1.45521,5.776733 0,1.984374 -0.61737,4.012846 -0.57326,1.984373 -1.89617,3.61597 -1.27882,1.631596 -3.48368,2.645832 -2.16077,0.970138 -5.33576,0.970138 h -4.58611 v 10.274647 h -6.3941 V 22.901071 Z m 1.10243,15.963186 q 1.45521,0 2.42534,-0.485069 0.97014,-0.529166 1.49931,-1.278819 0.57326,-0.793749 0.79375,-1.631596 0.26458,-0.837847 0.26458,-1.455208 0,-0.485069 -0.17639,-1.278818 -0.13229,-0.837847 -0.61736,-1.675694 -0.48507,-0.837847 -1.4993,-1.41111 -0.97014,-0.573264 -2.64583,-0.573264 h -4.58611 v 9.789578 z"
         style="-inkscape-font-specification:'Josefin Sans Bold';fill:#353ab8"
         id="path525" /><path
         d="m 264.8282,22.901071 v 32.455538 h -6.39409 V 42.171547 h -14.50798 v 13.185062 h -6.39409 V 22.901071 h 6.39409 v 13.096868 h 14.50798 V 22.901071 Z"
         style="-inkscape-font-specification:'Josefin Sans Bold';fill:#353ab8"
         id="path527" /><path
         d="m 281.14408,22.901071 h 6.3941 v 32.455538 h -6.3941 z"
         style="-inkscape-font-specification:'Josefin Sans Bold';fill:#353ab8"
         id="path529" /><path
         d="m 313.68778,22.901071 q 3.04271,0 5.42396,0.79375 2.38124,0.749652 3.96874,2.20486 1.6316,1.41111 2.46945,3.439581 0.83784,1.984374 0.83784,4.497914 0,1.984374 -0.61736,3.968748 -0.57326,1.984374 -1.94027,3.615971 -1.32292,1.631596 -3.52778,2.645832 -2.20486,0.970138 -5.46805,0.970138 h -4.58611 v 10.318744 h -6.39409 V 22.901071 Z m 1.10243,15.963186 q 1.45521,0 2.42535,-0.485069 0.97013,-0.485069 1.4993,-1.234722 0.57326,-0.749652 0.79375,-1.543402 0.26458,-0.837846 0.26458,-1.543402 0,-0.529166 -0.17639,-1.322915 -0.13229,-0.837847 -0.61736,-1.675694 -0.48507,-0.837847 -1.4993,-1.41111 -0.97014,-0.573264 -2.64583,-0.573264 h -4.58611 v 9.789578 z m 5.99722,3.968748 8.02569,12.523604 h -7.45243 l -8.20208,-12.347215 z"
         style="-inkscape-font-specification:'Josefin Sans Bold';fill:#353ab8"
         id="path531" /><path
         d="m 342.04223,22.901071 h 22.13679 v 6.173608 h -15.7427 v 6.92326 h 13.93472 v 6.173608 h -13.93472 v 7.011455 h 16.36007 v 6.173607 h -22.75416 z"
         style="-inkscape-font-specification:'Josefin Sans Bold';fill:#353ab8"
         id="path533" /></g></g></svg>
