<?xml version="1.0" encoding="UTF-8" standalone="no"?>
<!-- Created with Inkscape (http://www.inkscape.org/) -->

<svg
   width="415mm"
   height="113.3468mm"
   viewBox="0 0 415 113.3468"
   version="1.1"
   id="svg5"
   xml:space="preserve"
   inkscape:version="1.2.1 (9c6d41e, 2022-07-14)"
   sodipodi:docname="sapphire_text_light_reference.svg"
   inkscape:export-filename="sapphirenw_text_dark.svg"
   inkscape:export-xdpi="96"
   inkscape:export-ydpi="96"
   xmlns:inkscape="http://www.inkscape.org/namespaces/inkscape"
   xmlns:sodipodi="http://sodipodi.sourceforge.net/DTD/sodipodi-0.dtd"
   xmlns="http://www.w3.org/2000/svg"
   xmlns:svg="http://www.w3.org/2000/svg"><sodipodi:namedview
     id="namedview7"
     pagecolor="#ffffff"
     bordercolor="#000000"
     borderopacity="0.25"
     inkscape:showpageshadow="2"
     inkscape:pageopacity="0.0"
     inkscape:pagecheckerboard="0"
     inkscape:deskcolor="#d1d1d1"
     inkscape:document-units="mm"
     showgrid="false"
     inkscape:zoom="0.41371486"
     inkscape:cx="661.08334"
     inkscape:cy="138.98461"
     inkscape:window-width="1512"
     inkscape:window-height="915"
     inkscape:window-x="0"
     inkscape:window-y="38"
     inkscape:window-maximized="0"
     inkscape:current-layer="layer1" /><defs
     id="defs2" /><g
     inkscape:label="Layer 1"
     inkscape:groupmode="layer"
     id="layer1"><g
       id="layer1-9"
       transform="matrix(0.60295027,0,0,0.6028362,-34.128304,-39.332336)"><path
         style="color:#000000;fill:#000000;fill-opacity:0;-inkscape-stroke:none"
         d="m 124.49328,88.961704 c 4.95335,0 9.90849,0.05247 13.71484,0.154297 1.90318,0.05091 3.52157,0.115293 4.6875,0.189453 0.58297,0.03708 1.05524,0.07592 1.36719,0.113282 0.0812,0.0097 0.12681,0.02824 0.19531,0.04687 0.0618,0.03924 -0.0523,-0.02656 0.0723,0.07813 0.24757,0.207971 0.60512,0.523256 1.03711,0.917968 0.86399,0.789425 2.03773,1.900476 3.40625,3.220704 2.73703,2.640456 6.2574,6.121124 9.74609,9.621092 3.48869,3.49997 6.9488,7.02242 9.5625,9.74999 1.30686,1.36379 2.40312,2.5304 3.17578,3.38282 0.38634,0.42621 0.69299,0.77555 0.89063,1.01367 0.0161,0.0194 0.0198,0.0354 0.0352,0.0566 0.0134,0.15479 0.0285,0.319 0.043,0.57421 0.0377,0.66316 0.0745,1.62358 0.10743,2.82032 0.0659,2.39349 0.11889,5.74036 0.16015,9.71289 0.0825,7.94505 0.11669,18.39898 0.10352,28.8457 -0.0132,10.44673 -0.0733,20.88888 -0.17578,28.80859 -0.0513,3.95986 -0.11366,7.28985 -0.18555,9.66406 -0.0359,1.1871 -0.0741,2.13809 -0.11328,2.78906 -0.0157,0.26055 -0.0309,0.43031 -0.0449,0.58009 -0.0423,0.0646 0.009,-0.0226 -0.0996,0.10937 -0.21523,0.26154 -0.53796,0.63238 -0.94141,1.07813 -0.80691,0.8915 -1.93924,2.08953 -3.2793,3.47852 -2.6801,2.77797 -6.1992,6.32283 -9.73437,9.81836 -3.53517,3.49552 -7.08875,6.94466 -9.83399,9.53125 -1.37261,1.29329 -2.54568,2.37296 -3.39648,3.12109 -0.4254,0.37407 -0.77288,0.66715 -1,0.8457 -0.016,0.0126 -0.0165,0.012 -0.0312,0.0234 -0.0885,0.013 -0.0145,-0.002 -0.17773,0.01 -0.33735,0.0238 -0.8171,0.0488 -1.4043,0.0703 -1.17441,0.043 -2.78092,0.0774 -4.66406,0.10351 -3.76628,0.0522 -8.6454,0.0703 -13.50977,0.0566 -4.86437,-0.0137 -9.71706,-0.0596 -13.42969,-0.13281 -1.85631,-0.0366 -3.4298,-0.0796 -4.5625,-0.1289 -0.56635,-0.0247 -1.02501,-0.0511 -1.33398,-0.0762 -0.12653,-0.0103 0.0203,0.0283 -0.0664,0.008 -0.0282,-0.0221 -0.0352,-0.0259 -0.0684,-0.0527 -0.23404,-0.18961 -0.58413,-0.49046 -1.00977,-0.87109 -0.85128,-0.76127 -2.01802,-1.84802 -3.38281,-3.14649 -2.729574,-2.59692 -6.256574,-6.04342 -9.761724,-9.52734 -3.50515,-3.48392 -6.99046,-7.00756 -9.64062,-9.75781 -1.32509,-1.37513 -2.44314,-2.56011 -3.23828,-3.43555 -0.39758,-0.43772 -0.71502,-0.79889 -0.92579,-1.05273 -0.0933,-0.11235 -0.0322,-0.009 -0.0781,-0.0801 -0.0139,-0.14939 -0.0294,-0.31525 -0.0449,-0.57227 -0.0393,-0.65084 -0.0773,-1.60204 -0.11328,-2.78906 -0.072,-2.37404 -0.13417,-5.70432 -0.18554,-9.66406 -0.10275,-7.91948 -0.16248,-18.35998 -0.17579,-28.80664 -0.0133,-10.44666 0.019,-20.90242 0.10157,-28.84767 0.0413,-3.97261 0.0942,-7.31924 0.16015,-9.71288 0.033,-1.19682 0.0697,-2.15708 0.10743,-2.82031 0.0145,-0.25525 0.0295,-0.41939 0.043,-0.57422 0.0154,-0.0213 0.019,-0.0372 0.0352,-0.0566 0.19764,-0.23812 0.50429,-0.58746 0.89062,-1.01367 0.77267,-0.85242 1.87088,-2.01903 3.17773,-3.38282 2.61371,-2.72757 6.07186,-6.25002 9.56055,-9.75 3.48869,-3.499968 7.00907,-6.980636 9.746104,-9.621092 1.36851,-1.320228 2.54421,-2.431279 3.4082,-3.220704 0.43199,-0.394712 0.78758,-0.709997 1.03515,-0.917968 0.12296,-0.103285 0.009,-0.03604 0.0723,-0.07617 0.0688,-0.01876 0.11358,-0.03904 0.19532,-0.04883 0.31195,-0.03736 0.78421,-0.0762 1.36718,-0.113282 1.16594,-0.07416 2.78433,-0.13854 4.6875,-0.189453 3.80636,-0.101824 8.76346,-0.154296 13.7168,-0.154297 z"
         id="path10076-8" /><path
         style="color:#000000;fill:#000000;-inkscape-stroke:none"
         d="m 119.39172,209.82702 h 5.10156 5.10156 l 0.0527,0.12695 c 0.38701,0.90538 3.25922,7.83118 4.58789,11.04493 -1.88185,0.0481 -4.86865,0.0684 -9.74219,0.0684 -4.8726,0 -7.86022,-0.0203 -9.74219,-0.0684 1.32871,-3.21382 4.19893,-10.13956 4.58594,-11.04493 z"
         id="path10112-6" /><path
         style="color:#000000;fill:#9194df;fill-opacity:1;-inkscape-stroke:none"
         d="m 116.75109,205.82702 -1.09179,2.55469 c -0.57433,1.34356 -5.2119,12.49943 -5.64649,13.59375 -0.26067,0.65636 0.0558,1.79726 0.44922,2.19531 0.39338,0.39805 0.65207,0.45896 0.83984,0.52539 0.37555,0.13286 0.57835,0.14673 0.83985,0.17774 0.523,0.062 1.18004,0.0937 2.1582,0.12109 1.95633,0.0547 5.14106,0.0723 10.19336,0.0723 5.0523,0 8.23703,-0.0176 10.19336,-0.0723 0.97816,-0.0273 1.63325,-0.0591 2.15625,-0.12109 0.2615,-0.031 0.46431,-0.0449 0.83984,-0.17774 0.18777,-0.0664 0.44647,-0.12737 0.83985,-0.52539 0.39338,-0.39802 0.70989,-1.53891 0.44922,-2.19531 -0.43459,-1.09432 -5.07021,-12.25019 -5.64453,-13.59375 l -1.09375,-2.55469 h -7.74024 z"
         id="path10110-5" /><path
         style="color:#000000;fill:#000000;-inkscape-stroke:none"
         d="m 148.41125,197.97741 c 0.36589,0.14381 0.73662,0.29024 1.25391,0.49806 1.3808,0.55473 3.20887,1.30045 5.0332,2.05078 1.73703,0.71441 3.43165,1.41815 4.7793,1.98437 -0.21136,0.21913 -0.32403,0.34043 -0.56641,0.58985 -1.57548,1.62118 -3.77556,3.85079 -6.21094,6.28711 -2.43735,2.43826 -4.67141,4.65475 -6.30273,6.25781 -0.28048,0.27562 -0.42523,0.41313 -0.66797,0.65039 -0.56604,-1.30844 -1.25934,-2.93844 -1.96875,-4.63672 -0.76019,-1.81983 -1.51516,-3.65424 -2.07617,-5.05078 -0.22158,-0.55158 -0.38162,-0.96152 -0.5293,-1.34375 0.17907,-0.19476 0.3217,-0.35368 0.56055,-0.60547 0.8114,-0.85533 1.91423,-1.98371 3.02539,-3.09962 1.11116,-1.11589 2.23424,-2.22225 3.08593,-3.03711 0.24251,-0.23201 0.39426,-0.36875 0.58399,-0.54492 z"
         id="path10108-7" /><path
         style="color:#000000;fill:#000000;-inkscape-stroke:none"
         d="m 100.57922,197.97741 c 0.18959,0.17629 0.34165,0.31275 0.58398,0.54492 0.85108,0.81544 1.97167,1.92237 3.08203,3.03907 1.11037,1.1167 2.21261,2.24561 3.02344,3.10157 0.23566,0.24877 0.37518,0.4063 0.55274,0.59961 -0.13444,0.34598 -0.26674,0.68803 -0.46485,1.18359 -0.54212,1.35607 -1.29424,3.20166 -2.12109,5.19531 -0.75619,1.82328 -1.43195,3.40372 -1.98242,4.67188 -0.29907,-0.29225 -0.50175,-0.48534 -0.85352,-0.83203 -1.68261,-1.65831 -3.907974,-3.8783 -6.119144,-6.10156 -2.21117,-2.22327 -4.41106,-4.45263 -6.04297,-6.12696 -0.30212,-0.30997 -0.46113,-0.47972 -0.7207,-0.74804 1.34696,-0.56586 3.03903,-1.26744 4.77344,-1.98047 1.82461,-0.75012 3.65196,-1.49438 5.0332,-2.04883 0.51762,-0.20779 0.889754,-0.35434 1.255864,-0.49806 z"
         id="path10106-6" /><path
         style="color:#000000;fill:#353ab8;fill-opacity:1;-inkscape-stroke:none"
         d="m 148.00891,193.69226 c -1.12671,0 -1.00388,0.25965 -1.12696,0.33789 -0.12308,0.0782 -0.19244,0.13159 -0.26367,0.1875 -0.14247,0.11182 -0.27302,0.22339 -0.42578,0.35937 -0.30553,0.27198 -0.68595,0.62902 -1.13086,1.05469 -0.88983,0.85134 -2.02583,1.97219 -3.1543,3.10547 -1.12846,1.13328 -2.24603,2.27631 -3.09375,3.16992 -0.42385,0.44681 -0.77805,0.82799 -1.04883,1.13477 -0.13538,0.15339 -0.24622,0.28289 -0.35742,0.42578 -0.0556,0.0714 -0.10993,0.14059 -0.1875,0.26367 -0.0776,0.12308 -0.33398,0.006 -0.33398,1.12305 0,0.59302 0.0665,0.53346 0.0937,0.6289 0.0272,0.0954 0.0535,0.17031 0.082,0.25391 0.0571,0.1672 0.12616,0.35697 0.21289,0.58594 0.17346,0.45792 0.41125,1.06339 0.69727,1.77539 0.57204,1.42398 1.33205,3.26877 2.09765,5.10156 0.7656,1.83278 1.53554,3.65093 2.13086,5.02148 0.29767,0.68528 0.55066,1.25577 0.74414,1.67578 0.0967,0.21001 0.17765,0.37828 0.25586,0.53125 0.0391,0.0765 0.0711,0.14352 0.13867,0.25391 0.0338,0.0552 0.0685,0.11797 0.17578,0.25 0.0537,0.066 0.118,0.14978 0.28711,0.28906 0.0846,0.0696 0.38584,0.24957 0.38672,0.25 8.9e-4,4.4e-4 0.88992,0.20899 0.89063,0.20899 3.4e-4,0 0.50735,-0.0663 0.50781,-0.0664 4.7e-4,-1.2e-4 0.19737,-0.0612 0.26172,-0.0879 0.1287,-0.0534 0.19649,-0.0916 0.25,-0.12305 0.10703,-0.0628 0.15086,-0.0984 0.18945,-0.12695 0.0772,-0.0571 0.11368,-0.0879 0.15039,-0.11914 0.0734,-0.0625 0.13442,-0.11695 0.20899,-0.18555 0.14913,-0.13719 0.33984,-0.31828 0.58008,-0.54883 0.48046,-0.46109 1.15256,-1.11602 1.9746,-1.92382 1.64409,-1.6156 3.88383,-3.83799 6.32813,-6.28321 2.44625,-2.44718 4.65462,-4.68452 6.25,-6.32617 0.79769,-0.82082 1.44076,-1.49155 1.89258,-1.97461 0.22591,-0.24153 0.40012,-0.434 0.54101,-0.5957 0.0704,-0.0809 0.12983,-0.14673 0.21094,-0.25391 0.0406,-0.0536 0.0831,-0.103 0.17383,-0.26367 0.0454,-0.0803 0.11036,-0.17261 0.18945,-0.45312 0.0198,-0.0701 0.0392,-0.15341 0.0547,-0.26172 0.0154,-0.10832 0.0157,-0.41161 0.0156,-0.41211 -3e-5,-5.1e-4 -0.14047,-0.61876 -0.14062,-0.61914 -1.5e-4,-3.9e-4 -0.48019,-0.70677 -0.48047,-0.70703 -0.31182,-0.29531 -0.3406,-0.26261 -0.40039,-0.29688 -0.06,-0.0344 -0.0973,-0.0523 -0.13281,-0.0703 -0.0711,-0.0359 -0.13083,-0.0633 -0.20117,-0.0957 -0.14069,-0.0649 -0.31375,-0.14139 -0.52735,-0.23438 -0.42719,-0.18598 -1.01017,-0.43604 -1.70508,-0.72852 -1.38981,-0.58495 -3.2188,-1.34222 -5.05078,-2.0957 -1.83198,-0.75347 -3.66507,-1.50109 -5.0625,-2.0625 -0.69871,-0.2807 -1.28752,-0.51572 -1.7207,-0.68359 -0.21659,-0.0839 -0.39193,-0.15045 -0.53711,-0.20313 -0.0726,-0.0263 -0.13649,-0.0477 -0.21289,-0.0723 -0.0382,-0.0123 -0.0775,-0.0248 -0.14648,-0.043 -0.069,-0.0181 -0.0489,-0.0703 -0.53125,-0.0703 z"
         id="path10104-2" /><path
         style="color:#000000;fill:#c5c9ee;fill-opacity:1;-inkscape-stroke:none"
         d="m 100.98156,193.69226 c -0.47429,0 -0.458,0.0502 -0.52734,0.0684 -0.0693,0.0181 -0.10996,0.0306 -0.14844,0.043 -0.077,0.0247 -0.13806,0.0479 -0.21094,0.0742 -0.145754,0.0528 -0.322174,0.11919 -0.539064,0.20313 -0.43379,0.16787 -1.02359,0.40103 -1.72266,0.68164 -1.39813,0.56122 -3.23206,1.30919 -5.06445,2.0625 -1.83239,0.75331 -3.66237,1.51251 -5.05273,2.09765 -0.69518,0.29258 -1.27935,0.54029 -1.70703,0.72657 -0.21385,0.0931 -0.38618,0.17115 -0.52735,0.23633 -0.0706,0.0326 -0.13158,0.0595 -0.20312,0.0957 -0.0358,0.0181 -0.0726,0.0376 -0.13282,0.0723 -0.0602,0.0346 -0.0886,10e-4 -0.39843,0.29493 -5.4e-4,5.1e-4 -0.62501,1.45793 -0.625,1.45898 0,0.001 0.0636,0.51827 0.10742,0.64648 0.0876,0.25644 0.14796,0.3349 0.1914,0.40625 0.0869,0.14271 0.12654,0.18798 0.16602,0.23829 0.079,0.1006 0.14047,0.16818 0.21484,0.25195 0.14875,0.16755 0.33798,0.37248 0.58008,0.62891 0.48421,0.51285 1.16839,1.22119 1.99219,2.0664 1.6476,1.69042 3.85203,3.9239 6.07031,6.1543 2.21828,2.2304 4.44819,4.45514 6.14649,6.1289 0.849154,0.83689 1.563714,1.53603 2.085934,2.03516 0.26111,0.24957 0.47167,0.44719 0.64258,0.60156 0.0855,0.0772 0.157,0.14071 0.24805,0.21485 0.0455,0.0371 0.0907,0.0748 0.1875,0.14062 0.0484,0.0329 0.1072,0.0736 0.23047,0.13672 0.0616,0.0316 0.13801,0.0689 0.26758,0.11328 0.12957,0.0444 0.65129,0.10938 0.65234,0.10938 6.9e-4,0 0.85071,-0.18906 0.85156,-0.18946 8.5e-4,-3.9e-4 0.30175,-0.17204 0.38867,-0.24023 0.17386,-0.13639 0.24412,-0.22198 0.30079,-0.28906 0.11332,-0.13417 0.14833,-0.1979 0.18359,-0.25391 0.0705,-0.11202 0.10404,-0.17805 0.14258,-0.25195 0.0771,-0.1478 0.15342,-0.30525 0.24609,-0.50391 0.18534,-0.39732 0.42713,-0.93967 0.71875,-1.60742 0.58325,-1.33551 1.35982,-3.1621 2.19336,-5.17188 0.83239,-2.007 1.58721,-3.86079 2.13867,-5.24023 0.27573,-0.68972 0.5,-1.25948 0.66016,-1.67969 0.0801,-0.2101 0.14415,-0.38156 0.19531,-0.52734 0.0256,-0.0729 0.0474,-0.13701 0.0723,-0.21875 0.0248,-0.0817 0.10156,0.11818 0.10156,-0.64649 0,-1.11575 -0.25458,-0.99801 -0.33203,-1.12109 -0.0775,-0.12307 -0.13195,-0.19219 -0.1875,-0.26367 -0.1111,-0.14296 -0.22214,-0.27229 -0.35742,-0.42578 -0.27058,-0.30699 -0.62528,-0.6896 -1.04883,-1.13672 -0.84711,-0.89424 -1.96218,-2.03779 -3.08985,-3.17188 -1.12766,-1.13408 -2.2651,-2.25547 -3.15429,-3.10742 -0.4446,-0.42597 -0.82359,-0.78251 -1.12891,-1.05468 -0.15266,-0.13608 -0.28339,-0.24745 -0.42578,-0.35938 -0.0712,-0.056 -0.13864,-0.11111 -0.26172,-0.18945 -0.12308,-0.0784 -0.002,-0.33788 -1.13086,-0.33788 z"
         id="path10102-7" /><path
         style="color:#000000;fill:#000000;-inkscape-stroke:none"
         d="m 84.788196,127.51649 c 1.32388,0.54122 2.95558,1.21106 4.82422,1.98436 l 6.21094,2.57031 v 27.21094 27.21094 l -6.2168,2.57226 c -1.86865,0.77353 -3.49848,1.44464 -4.82226,1.98633 -0.0114,-1.7521 -0.0225,-4.19301 -0.0312,-7.25586 -0.0179,-6.2889 -0.0293,-14.96516 -0.0293,-24.50976 0,-9.54452 0.0124,-18.22297 0.0312,-24.51172 0.009,-3.06358 0.0212,-5.50588 0.0332,-7.2578 z"
         id="path10100-0" /><path
         style="color:#000000;fill:#000000;-inkscape-stroke:none"
         d="m 164.19836,127.51449 c 0.012,1.75199 0.024,4.19535 0.0332,7.25976 0.0189,6.28875 0.0293,14.9672 0.0293,24.51172 0,9.54284 -0.0222,18.21446 -0.0606,24.4961 -0.0187,3.07316 -0.0419,5.52997 -0.0664,7.27538 -1.32879,-0.54392 -2.99074,-1.22843 -4.86329,-2.00977 l -6.10742,-2.54882 v -27.2168 -27.21094 l 6.20904,-2.57036 c 1.86955,-0.77368 3.50203,-1.445 4.82617,-1.98632 z"
         id="path10098-3" /><path
         style="color:#000000;fill:#353ab8;fill-opacity:1;-inkscape-stroke:none"
         d="m 166.15734,122.57113 c -4.4e-4,0 -0.32283,0.0261 -0.38867,0.0391 -0.0658,0.013 -0.10312,0.0233 -0.13281,0.0312 -0.0594,0.0159 -0.0872,0.0234 -0.11133,0.0312 -0.0483,0.0157 -0.0749,0.0254 -0.10156,0.0352 -0.0533,0.0194 -0.10214,0.0393 -0.16211,0.0625 -0.11994,0.0465 -0.27564,0.10778 -0.47461,0.1875 -0.39795,0.15944 -0.9581,0.38782 -1.64453,0.66797 -1.37286,0.5603 -3.2489,1.33135 -5.29883,2.17969 l -8.67969,3.59178 v 29.88477 29.88087 l 8.56641,3.57617 c 2.02176,0.8436 3.88457,1.61209 5.25976,2.17383 0.6876,0.28086 1.25137,0.50944 1.66016,0.67187 0.2044,0.0812 0.36933,0.14583 0.5,0.19532 0.0653,0.0247 0.12104,0.0446 0.18359,0.0664 0.0313,0.0109 0.0631,0.0232 0.11524,0.0391 0.0522,0.0159 0.0263,0.0419 0.39453,0.0801 4.5e-4,5e-5 1.58158,-0.53471 1.58203,-0.53514 4.6e-4,-4.3e-4 0.35249,-0.43204 0.41602,-0.55861 0.12705,-0.25311 0.1366,-0.35131 0.15625,-0.43163 0.0393,-0.16064 0.0422,-0.2128 0.0488,-0.26758 0.0132,-0.10956 0.0167,-0.17467 0.0215,-0.2539 0.009,-0.15847 0.0163,-0.3463 0.0234,-0.58789 0.0143,-0.48319 0.0283,-1.17134 0.041,-2.05664 0.0255,-1.7706 0.0472,-4.31981 0.0664,-7.4668 0.0384,-6.29398 0.0625,-14.972 0.0625,-24.52148 0,-9.5478 -0.0104,-18.22862 -0.0293,-24.52344 -0.009,-3.14741 -0.0207,-5.69889 -0.0332,-7.4668 -0.006,-0.88395 -0.0126,-1.57061 -0.0195,-2.04492 -0.003,-0.23716 -0.008,-0.41993 -0.0117,-0.55859 -0.002,-0.0693 -0.004,-0.12232 -0.008,-0.19141 -0.002,-0.0345 -0.004,-0.0661 -0.0137,-0.15039 -0.005,-0.0421 -0.005,-0.0861 -0.0391,-0.23242 -0.0172,-0.0732 -0.13845,-0.39601 -0.13867,-0.39649 -2.2e-4,-4.7e-4 -1.81032,-1.15039 -1.81055,-1.15039 z"
         id="path10096-9" /><path
         style="color:#000000;fill:#c5c9ee;fill-opacity:1;-inkscape-stroke:none"
         d="m 82.827256,122.57113 c -2.2e-4,0 -1.81032,1.14992 -1.81054,1.15039 -2.3e-4,4.8e-4 -0.11954,0.32333 -0.13672,0.39649 -0.0343,0.14631 -0.0361,0.19029 -0.041,0.23242 -0.01,0.0843 -0.0116,0.11585 -0.0137,0.15039 -0.004,0.0691 -0.006,0.12208 -0.008,0.19141 -0.004,0.13866 -0.006,0.32143 -0.01,0.55859 -0.007,0.47431 -0.0133,1.16097 -0.0195,2.04492 -0.0125,1.7679 -0.0237,4.31939 -0.0332,7.4668 -0.0189,6.29481 -0.0312,14.97563 -0.0312,24.52343 0,9.5477 0.0114,18.22682 0.0293,24.52148 0.009,3.14734 0.0194,5.69721 0.0312,7.46485 0.006,0.88382 0.013,1.57113 0.0195,2.04492 0.003,0.2369 0.006,0.419 0.01,0.55664 0.002,0.0688 0.004,0.12236 0.008,0.18945 0.002,0.0335 0.003,0.0641 0.0117,0.14453 0.005,0.0402 0.004,0.0827 0.0352,0.22266 0.0156,0.07 0.12674,0.38038 0.12695,0.38086 2.1e-4,4.7e-4 1.82791,1.1875 1.82813,1.1875 4.2e-4,0 0.3327,-0.0277 0.39843,-0.041 0.0657,-0.0134 0.10176,-0.0233 0.13086,-0.0312 0.0582,-0.0159 0.0859,-0.0255 0.10938,-0.0332 0.0469,-0.0154 0.0716,-0.0237 0.0977,-0.0332 0.0521,-0.0191 0.10065,-0.0374 0.16015,-0.0605 0.11902,-0.0463 0.27601,-0.10973 0.47461,-0.18946 0.39721,-0.15943 0.95627,-0.38562 1.64258,-0.66601 1.37263,-0.56075 3.24949,-1.33251 5.30078,-2.18163 l 8.68555,-3.5957 v -29.88477 -29.88477 l -8.68164,-3.59179 c -2.04993,-0.84834 -3.92402,-1.61939 -5.29688,-2.17969 -0.68642,-0.28015 -1.24658,-0.50853 -1.64453,-0.66797 -0.19897,-0.0797 -0.35662,-0.14102 -0.47656,-0.1875 -0.06,-0.0232 -0.10878,-0.0431 -0.16211,-0.0625 -0.0267,-0.01 -0.0533,-0.0195 -0.10156,-0.0352 -0.0242,-0.008 -0.05,-0.0154 -0.10938,-0.0312 -0.0297,-0.008 -0.067,-0.0182 -0.13281,-0.0312 -0.0658,-0.013 -0.39018,-0.0391 -0.39062,-0.0391 z"
         id="path10094-9" /><path
         style="color:#000000;fill:#000000;-inkscape-stroke:none"
         d="m 117.83703,120.9266 h 6.65625 6.6543 l 4.84375,4.84961 4.8457,4.8496 v 28.66406 28.66406 l -4.84961,4.84375 -4.84961,4.84571 h -6.65039 -6.65039 l -4.84375,-4.84961 -4.8457,-4.84961 v -28.65825 -28.66016 l 4.8457,-4.8496 z"
         id="path10092-9" /><path
         id="path10090-1"
         style="color:#000000;fill:#9194df;fill-opacity:1"
         d="m 116.17871,116.92683 -6.01566,6.0234 -6.01565,6.01927 v 30.3165 30.31443 l 6.01565,6.01927 6.01566,6.02392 h 8.2088 v -84.71679 z m 8.20931,0 v 84.71679 h 0.0997 8.30699 l 6.02133,-6.01565 6.02134,-6.01566 V 159.28962 128.9695 l -6.01565,-6.01927 -6.01566,-6.0234 h -8.31215 z" /><path
         style="color:#000000;fill:#000000;-inkscape-stroke:none"
         d="m 103.24914,102.26058 c 0.56683,1.31006 1.26505,2.94709 1.97656,4.65039 0.76019,1.81985 1.51516,3.65424 2.07617,5.05079 0.22195,0.55249 0.38152,0.96317 0.5293,1.3457 -0.16163,0.17695 -0.27943,0.31121 -0.49414,0.53906 -0.78578,0.83389 -1.88847,1.96642 -3.09961,3.17578 -1.21069,1.20892 -2.34345,2.30772 -3.17773,3.08985 -0.22174,0.20787 -0.34987,0.32078 -0.52344,0.47851 -0.36928,-0.14484 -0.751564,-0.29653 -1.277344,-0.50781 -1.37621,-0.55299 -3.192,-1.29354 -5.00586,-2.04101 -1.72225,-0.70972 -3.40228,-1.40856 -4.74024,-1.97266 0.2607,-0.26951 0.42088,-0.44035 0.72461,-0.75195 1.63192,-1.67432 3.83179,-3.9037 6.04297,-6.12696 2.21118,-2.22325 4.436524,-4.44325 6.119144,-6.10157 0.35014,-0.34508 0.55166,-0.53695 0.84961,-0.82812 z"
         id="path10088-7" /><path
         style="color:#000000;fill:#000000;-inkscape-stroke:none"
         d="m 145.73547,102.25858 c 0.29839,0.2916 0.50078,0.48436 0.85156,0.83008 1.68262,1.65831 3.90601,3.8783 6.11719,6.10155 2.21117,2.22326 4.41106,4.45263 6.04297,6.12696 0.3001,0.3079 0.45865,0.47534 0.71679,0.74218 -1.2954,0.54571 -2.90763,1.21896 -4.74218,1.97657 -1.98768,0.82085 -3.82193,1.56693 -5.16797,2.10547 -0.48051,0.19224 -0.80779,0.31885 -1.14649,0.45117 -0.18972,-0.17641 -0.34141,-0.31251 -0.58398,-0.54492 -0.85108,-0.81544 -1.97362,-1.92237 -3.08399,-3.03907 -1.11036,-1.11669 -2.2126,-2.24561 -3.02343,-3.10156 -0.23886,-0.25214 -0.38153,-0.41243 -0.56055,-0.60742 0.14767,-0.38171 0.30798,-0.78938 0.5293,-1.33985 0.5612,-1.39585 1.31584,-3.22947 2.07617,-5.04882 0.71188,-1.70345 1.4077,-3.34224 1.97461,-4.65234 z"
         id="path10086-2" /><path
         style="color:#000000;fill:#000000;-inkscape-stroke:none"
         d="m 124.49328,97.50272 c 4.87354,0 7.86034,0.02029 9.74219,0.06836 -1.32867,3.21375 -4.20088,10.13955 -4.58789,11.04491 l -0.0527,0.12696 h -5.10156 -5.10156 l -0.0547,-0.12696 c -0.38701,-0.90534 -3.25723,-7.83109 -4.58594,-11.04491 1.88197,-0.04805 4.8696,-0.06836 9.74219,-0.06836 z"
         id="path10084-3" /><path
         style="color:#000000;fill:#353ab8;fill-opacity:1;-inkscape-stroke:none"
         d="m 145.07922,96.889439 c -7e-4,0 -0.89561,0.2105 -0.89649,0.210937 -8.7e-4,4.38e-4 -0.30061,0.182223 -0.38476,0.251953 -0.16831,0.139462 -0.23196,0.223316 -0.28516,0.289063 -0.1064,0.131495 -0.14033,0.193158 -0.17383,0.248047 -0.067,0.109777 -0.10168,0.175681 -0.14062,0.251953 -0.0779,0.152544 -0.15728,0.321394 -0.25391,0.53125 -0.19324,0.419712 -0.44459,0.990709 -0.74219,1.675778 -0.59518,1.37015 -1.36712,3.18735 -2.13281,5.01954 -0.76568,1.83218 -1.52357,3.67656 -2.0957,5.09961 -0.28607,0.71152 -0.52577,1.31617 -0.69922,1.77343 -0.0867,0.22864 -0.15587,0.41729 -0.21289,0.58399 -0.0285,0.0834 -0.0548,0.15882 -0.082,0.25391 -0.0272,0.0951 -0.0937,0.0319 -0.0937,0.63085 0,1.11576 0.25458,0.99802 0.33203,1.1211 0.0774,0.12307 0.13195,0.19219 0.1875,0.26367 0.1111,0.14296 0.22409,0.27229 0.35937,0.42578 0.27058,0.30699 0.62333,0.6896 1.04688,1.13672 0.84711,0.89424 1.96413,2.03779 3.0918,3.17188 1.12766,1.13408 2.26315,2.25547 3.15234,3.10742 0.4446,0.42597 0.82359,0.78251 1.12891,1.05468 0.15266,0.13609 0.28338,0.24941 0.42578,0.36133 0.0712,0.056 0.14059,0.10916 0.26367,0.1875 0.12308,0.0784 6e-4,0.33789 1.12891,0.33789 0.44121,0 0.44197,-0.0468 0.51171,-0.0644 0.0697,-0.0177 0.11026,-0.031 0.14844,-0.043 0.0764,-0.024 0.13728,-0.0454 0.20703,-0.0703 0.13951,-0.0498 0.30574,-0.11234 0.51172,-0.19141 0.41197,-0.15814 0.97508,-0.37903 1.65821,-0.65234 1.36625,-0.54662 3.20984,-1.29747 5.20898,-2.12305 1.9975,-0.8249 3.8275,-1.58854 5.17187,-2.15625 0.67219,-0.28387 1.22221,-0.51787 1.61719,-0.68945 0.1975,-0.0858 0.35321,-0.15583 0.47852,-0.21289 0.0626,-0.0285 0.11601,-0.0517 0.17773,-0.082 0.0309,-0.0152 0.0628,-0.0306 0.11719,-0.0606 0.0542,-0.0298 0.034,0.0606 0.42578,-0.31055 5.4e-4,-5.1e-4 0.625,-1.45794 0.625,-1.45898 0,-0.001 -0.0636,-0.51826 -0.10742,-0.64649 -0.0877,-0.25644 -0.14796,-0.33489 -0.19141,-0.40625 -0.0869,-0.14271 -0.12653,-0.18797 -0.16601,-0.23828 -0.079,-0.1006 -0.13852,-0.16818 -0.21289,-0.25195 -0.14875,-0.16755 -0.33993,-0.37248 -0.58203,-0.62891 -0.48421,-0.51285 -1.16644,-1.22119 -1.99024,-2.0664 -1.6476,-1.69043 -3.85399,-3.92389 -6.07226,-6.1543 -2.21828,-2.23041 -4.44819,-4.45514 -6.14649,-6.12891 -0.84915,-0.836883 -1.56371,-1.536025 -2.08594,-2.035155 -0.26111,-0.249565 -0.47166,-0.447192 -0.64257,-0.601562 -0.0855,-0.07719 -0.157,-0.140705 -0.24805,-0.214844 -0.0455,-0.03707 -0.0907,-0.07478 -0.1875,-0.140625 -0.0484,-0.03292 -0.10525,-0.07359 -0.22852,-0.136719 -0.0616,-0.03157 -0.13996,-0.06888 -0.26953,-0.113281 -0.12957,-0.0444 -0.6513,-0.109375 -0.65234,-0.109375 z"
         id="path10082-6" /><path
         style="color:#000000;fill:#c5c9ee;fill-opacity:1;-inkscape-stroke:none"
         d="m 103.90539,96.889439 c -10e-4,0 -0.52277,0.06496 -0.65234,0.109375 -0.12958,0.04441 -0.20596,0.08171 -0.26758,0.113281 -0.12325,0.06313 -0.1821,0.103799 -0.23047,0.136719 -0.0967,0.06584 -0.14198,0.10356 -0.1875,0.140625 -0.091,0.07413 -0.1626,0.137662 -0.24805,0.214844 -0.1709,0.154362 -0.38147,0.352 -0.64258,0.601562 -0.52221,0.499125 -1.23679,1.198275 -2.085934,2.035155 -1.6983,1.67377 -3.9282,3.89851 -6.14649,6.12891 -2.21828,2.23039 -4.42271,4.4639 -6.07031,6.1543 -0.8238,0.8452 -1.50799,1.55357 -1.99219,2.0664 -0.2421,0.25642 -0.43133,0.46138 -0.58008,0.62891 -0.0744,0.0838 -0.13588,0.15137 -0.21484,0.25195 -0.0395,0.0503 -0.0791,0.0956 -0.16602,0.23828 -0.0435,0.0714 -0.10373,0.14976 -0.1914,0.40625 -0.0438,0.12825 -0.10742,0.64544 -0.10742,0.64649 -1e-5,0.001 0.62446,1.45847 0.625,1.45898 0.29009,0.27476 0.32777,0.25358 0.38867,0.28907 0.0609,0.0355 0.0983,0.0555 0.13476,0.0742 0.0729,0.0373 0.13597,0.0665 0.20704,0.0996 0.14213,0.0662 0.31401,0.1429 0.52734,0.23633 0.42666,0.18687 1.0078,0.43448 1.69922,0.72656 1.38284,0.58417 3.20133,1.34093 5.02344,2.0918 1.8221,0.75087 3.647,1.49649 5.04101,2.05664 0.69701,0.28008 1.2855,0.51335 1.7207,0.68164 0.21761,0.0841 0.39523,0.15177 0.542974,0.20508 0.0739,0.0267 0.13721,0.0494 0.21485,0.0742 0.0776,0.0248 -0.14555,0.0851 0.60742,0.11133 h 0.002 0.002 c 1.1283,0.0368 1.02814,-0.23403 1.1543,-0.31055 0.12615,-0.0765 0.19511,-0.13017 0.26562,-0.18359 0.14103,-0.10685 0.26632,-0.21195 0.41406,-0.33985 0.29549,-0.25579 0.66385,-0.59172 1.10352,-1.0039 0.87933,-0.82437 2.03176,-1.94373 3.26758,-3.17774 1.23537,-1.23356 2.35885,-2.38637 3.18554,-3.26367 0.41334,-0.43865 0.74955,-0.80586 1.00586,-1.09961 0.12815,-0.14688 0.23371,-0.26993 0.33984,-0.4082 0.0531,-0.0691 0.10433,-0.13642 0.17969,-0.25781 0.0754,-0.1214 0.32422,-0.0102 0.32422,-1.10743 0,-0.59304 -0.0665,-0.53346 -0.0937,-0.6289 -0.0272,-0.0954 -0.0515,-0.17031 -0.0801,-0.25391 -0.0571,-0.1672 -0.12811,-0.35697 -0.21484,-0.58594 -0.17347,-0.45792 -0.41125,-1.0634 -0.69727,-1.77539 -0.57204,-1.42398 -1.33205,-3.26877 -2.09765,-5.10156 -0.76561,-1.83279 -1.53553,-3.65093 -2.13086,-5.02149 -0.29766,-0.685273 -0.55066,-1.255761 -0.74414,-1.675778 -0.0967,-0.210008 -0.17569,-0.378279 -0.25391,-0.53125 -0.0391,-0.07649 -0.0731,-0.143518 -0.14062,-0.253906 -0.0338,-0.05519 -0.0685,-0.117967 -0.17578,-0.25 -0.0537,-0.06602 -0.11799,-0.149784 -0.28711,-0.289063 -0.0846,-0.06964 -0.38584,-0.249562 -0.38672,-0.25 -8.8e-4,-4.37e-4 -0.88992,-0.208984 -0.89063,-0.208984 z"
         id="path10080-5" /><path
         style="color:#000000;fill:#9194df;fill-opacity:1;-inkscape-stroke:none"
         d="m 124.49328,93.50272 c -5.0523,0 -8.23703,0.01758 -10.19336,0.07227 -0.97816,0.02734 -1.63521,0.05909 -2.1582,0.121093 -0.2615,0.031 -0.46431,0.04488 -0.83985,0.177735 -0.18777,0.06643 -0.44646,0.127349 -0.83984,0.52539 -0.39338,0.398042 -0.70991,1.538936 -0.44922,2.195313 0.43459,1.094317 5.07216,12.250179 5.64649,13.593749 l 1.09179,2.55468 h 7.74219 7.74024 l 1.09375,-2.55468 c 0.57432,-1.34357 5.20994,-12.499432 5.64453,-13.593749 0.26067,-0.656398 -0.0558,-1.797289 -0.44922,-2.195313 -0.39338,-0.398023 -0.65208,-0.458964 -0.83985,-0.52539 -0.37553,-0.132852 -0.57834,-0.146731 -0.83984,-0.177735 -0.523,-0.06201 -1.17809,-0.09375 -2.15625,-0.121093 -1.95633,-0.05469 -5.14106,-0.07227 -10.19336,-0.07227 z"
         id="path10078-5" /></g><text
       xml:space="preserve"
       style="font-style:normal;font-variant:normal;font-weight:normal;font-stretch:normal;font-size:74.0833px;font-family:'Helvetica Neue';-inkscape-font-specification:'Helvetica Neue';fill:#ededf3;fill-opacity:1;stroke:none;stroke-width:0;stroke-dasharray:none"
       x="88.182587"
       y="80.934669"
       id="text850"><tspan
         sodipodi:role="line"
         style="font-style:normal;font-variant:normal;font-weight:bold;font-stretch:normal;font-size:74.0833px;font-family:Arial;-inkscape-font-specification:'Arial Bold';fill:#ededf3;fill-opacity:1;stroke:none;stroke-width:0;stroke-dasharray:none"
         x="88.182587"
         y="80.934669"
         id="tspan902">Sapphire</tspan></text><text
       xml:space="preserve"
       style="font-size:50.8px;font-family:'Microsoft Sans Serif';-inkscape-font-specification:'Microsoft Sans Serif';fill:#353955;fill-opacity:1;stroke:#353955;stroke-width:1.738"
       x="249.48587"
       y="6.2684889"
       id="text1686"><tspan
         sodipodi:role="line"
         id="tspan1684"
         style="stroke-width:1.738"
         x="249.48587"
         y="6.2684889" /></text></g></svg>
